<?xml version="1.0" encoding="UTF-8"?>
<svg enable-background="new 0 0 1886 1673.04" version="1.1" viewBox="0 0 1886 1673.04" xmlns="http://www.w3.org/2000/svg">
 <path d="m609.07 1169c-27.867-105.55-117.92-185.22-151.76-269.86-171.42-428.35 36.435-801.49 507.95-853.72-16.502-2.633-33.346-4.868-50.547-6.665-420.11-43.881-653.79 194.68-686.64 441.13-3.481 26.388 0 52.776 12.442 80.161-57.715 90.119-190.57 223.06-202.01 286.79-6.968 38.337 38.311 51.78 60.206 65.224 20.899 6.971 43.785 1.99 57.715 18.92 9.951 12.448-3.481 33.359-6.47 48.794-0.498 25.392-30.346 37.84-27.363 61.24 2.989 19.916 19.903 27.883 35.328 40.33 16.421 12.944-41.798 37.839-22.892 60.743 19.404 22.404 47.77 48.295 37.813 80.16-14.429 49.291-42.296 100.57-19.405 138.91 22.892 37.84 54.732 60.244 103.99 70.2 77.12 0 154.74 1.504 232.36 1.504 26.865 23.401 45.771 99.079 60.705 200.65h4.608c32.575-154.85 70.664-403.07 53.962-464.51z"/>
 <ellipse transform="matrix(.9998 -.02 .02 .9998 -32.554 11.334)" cx="550.49" cy="1633.5" rx=".003" ry=".003"/>
 <path d="m1335.5 1639.5c14.933-101.57 33.84-177.24 60.705-200.65 77.618 0 155.24-1.504 232.36-1.504 49.259-9.956 81.099-32.36 103.99-70.2 22.892-38.338-4.976-89.62-19.405-138.91-9.957-31.865 18.408-57.756 37.813-80.16 18.906-22.904-39.313-47.799-22.892-60.743 15.425-12.447 32.339-20.414 35.328-40.33 2.983-23.4-26.865-35.847-27.363-61.24-2.989-15.435-16.422-36.346-6.47-48.794 13.93-16.93 36.816-11.949 57.715-18.92 21.896-13.444 67.175-26.887 60.207-65.224-11.44-63.731-144.29-196.67-202.01-286.79 12.442-27.385 15.923-53.773 12.442-80.161-32.843-246.46-266.52-485.01-686.64-441.13-2.019 0.211-4.02 0.442-6.029 0.665 439.93 70.198 629.37 433.09 463.44 847.72-33.84 84.642-123.89 164.3-151.76 269.86-16.92 62.236 22.387 316.16 55.23 470.51"/>
 <path d="m555.1 1633.5c-0.424 2.015-0.847 4.018-1.269 6"/>
 <ellipse transform="matrix(.02 -.9998 .9998 .02 -330.39 2942)" cx="1335.5" cy="1639.5" rx=".003" ry=".003"/>
 <g fill="#040000">
  <path d="m929.14 160.35c0.079 85.443 0.057 903.39 0.017 1020.3-63.249 0.035-126.5 0.074-189.74-0.017-0.328-300.67-262.18-163.96-265.73-603.88-1.325-150.08 47.661-278.44 175.44-353.34 84.855-49.812 198.95-68.7 280.01-63.031z"/>
  <path d="m1004.6 165.3c5.41-4.011 14.205-2.182 20.35-1.848 8.651 0.469 17.19 0.525 25.154 4.349 3.516 1.688 5.497 4.137 8.65 6.092 3.881 2.406 4.825 2.264 9.913 2.706 13.265 1.15 27.01 6.698 38.446 13.289 5.426 3.128 11.194 12.703 17.097 13.78 6.382 1.165 16.534-7.871 22.543-10.172 35.606-13.636 68.275-2.949 89.394 28.669 7.36 11.019 12.075 23.743 11.853 37.107-0.117 7.043-4.736 15.439-4.177 22.042 0.952 11.221 13.937 7.823 21.66 9.001 8.091 1.234 14.686 4.317 20.083 10.795 9.738 11.689 11.365 31.59 12.436 46.25 1.087 14.888 2.706 30.069 14.324 39.966 12.597 10.732 25.001 19.441 33.642 33.802 13.571 22.558 14.457 42.92 13.404 68.535-0.48 11.686-3.482 22.618-6.211 33.915-2.216 9.173-1.329 7.839 5.718 13.362 7 5.485 10.819 11.1 14.291 19.104 3.744 8.632 6.113 15.126 6.039 24.444-0.038 4.764-0.225 9.531-0.481 14.288-0.167 3.141-0.376 6.279-0.628 9.414 1.979 1.117 3.943 2.263 5.89 3.435 5.917 7.613 11.517 14.141 15.65 22.81 4.662 9.777 9.245 22.973 10.872 34.007 3.146 21.337-5.02 31.189-22.519 40.809 14.825 17.95 26.885 41.926 23.915 65.939-1.724 13.945-6.123 25.453-15.367 36.059-4.666 5.352-9.484 10.373-14.685 15.198-3.897 3.616-14.521 11.205-16.397 16.443-1.954 5.456 2.682 15.234 1.836 21.68-0.685 5.222-4.266 10.306-4.634 15.305-0.353 4.791 3.724 12.023 4.627 18.597 0.929 6.763 2.802 13.175 3.566 19.908 2.561 22.588-3.624 39.144-16.051 57.654-5.659 8.43-10.302 17.293-16.844 25.045-9.714 11.511-17.81 17.034-31.792 21.947-3.628 1.275-9.428 2.216-12.701 3.946-9.336 4.935-6.692 25.386-11.602 35.575-5.268 10.932-8.593 22.916-17.057 32.067-6.445 6.969-14.741 9.36-22.863 13.718-17.014 9.129-34.877 11.17-54.044 8.853-11.182-1.352-30.456-9.548-39.318-4.522-3.74 2.122-7.876 8.343-11.201 11.38-4.792 4.376-9.851 8.594-13.603 13.849-5.92 8.292-10.521 13.112-20.361 18.286-12.096 6.361-28.172 14.473-41.655 16.814-13.494 2.343-30.756 2.939-44.016-0.464-3.159-0.811-5.992-1.897-8.895-3.438-4.687-2.489-8.025-8.725-12.093-10.731-0.475-0.234-5.166 1.382-6.683 0.887-3.84-1.255-7.141-3.056-10.666-5.023-6.245-3.485-12.103-7.555-16.518-13.355-10.077-13.234-11.567-29.029-9.541-45.167 0.314-2.5 1.013-4.946 1.367-7.46 0.389-2.764-0.306-4.414 0.725-7.337 0.417-1.183 4.074-3.605 4.261-4.629 1.304-7.099-2.341-18.271-3.433-25.309-2.621-16.888-10.299-32.43-10.794-49.64-0.228-7.925-0.177-17.493 2.807-24.978 3.182-7.98 13.298-16.816 12.513-25.569-0.716-7.984-7.859-17.055-10.658-24.84-5.634-15.671-3.116-33.127-2.818-49.439 0.27-14.827 2.37-23.986 5.718-37.828 2.4-9.922 4.938-18.441 8.403-27.954 2.915-8.003 2.632-8.46-2.399-15.401-2.378-3.28-4.742-7.067-5.722-11.048-4.445-18.05 6.784-44.219 20.274-56.483-5.988-6.467-10.826-12-14.849-20.274-6.353-13.07-3.479-29.707-3.41-44.22 0.093-19.444-0.631-39.259 1.073-58.66 0.41-4.666 1.441-8.657 2.593-13.132 1.589-6.17 3.3-11.898 5.894-17.808 3.148-7.171 5.857-14.436 8.921-21.636 2.835-6.664 7.081-13.489 9.515-20.171-17.322-4.198-27.698-34.811-28.181-50.585-0.501-16.341-1.06-34.668 1.169-50.9 0.504-3.673 1.768-7.217 2.791-10.768 1.554-5.389 2.677-10.72 3.835-16.2 1.444-6.835 2.373-6.797-1.286-10.836-2.764-3.051-4.962-1.662-6.511-6.261-1.128-3.349 0.352-11.014 1.382-14.45 2.321-7.744 7.802-12.025 14.127-16.676-7.3-2.059-17.931-16.605-21.347-23.02-5.035-9.456-3.77-21.411 0.52-30.89 3.279-7.244 7.91-13.96 11.882-20.839 2.015-3.49 5.929-7.995 7.138-11.745 1.8-5.587-2.028-9.981-4.48-16.181-5.455-13.792-5.192-35.975-0.864-49.824 1.878-6.011 6.24-12.706 11.117-16.663 8.942-7.253 21.425-9.947 29.977-16.747m12.502 6.757c-17.271 6.033-34.419 10.027-41.627 28.824-6.387 16.655-6.141 38.318 2.111 54.374 7.166-6.383 14.756-12 22.591-17.51 3.216-2.263 12.152-11.572 15.945-11.639 8.523-0.148 2.427 10.617-1.903 14.143-5.581 4.545-13.118 7.171-19.032 11.438-10.571 7.627-17.112 16.45-23.871 27.156-10.843 17.178-19.264 29.985-6.862 49.246 7.741 12.022 12.957 19.073 27.381 11.768 8.586-4.348 17.477-7.867 26.902-10.222 10.61-2.65 21.269-1.485 31.946 0.361 9.505 1.643 18.365 4.253 27.407 7.169 4.675 1.508 21.803 3.595 21.296 11.075-17.055 2.779-33.598-8.697-50.061-11.399-12.229-2.007-24.517-0.734-36.322 2.913-11.561 3.572-41.516 13.415-42.983 27.698-0.615 5.986 4.274 13.672 4.439 20.23 0.15 5.967-0.206 13.892-2.042 19.625-3.114 9.723-7.099 17.474-7.91 28.047-2.038 26.557-4.727 68.126 24.095 82.954 2.046-4.523 10.319-12.58 15.984-10.96-0.552 11.136-13.461 24.307-18.253 34.108-5.952 12.175-11.078 25.12-16.024 37.745-10.552 26.941-7.068 62.214-7.05 90.69 0.026 40.187 29.565 59.739 64.166 72.777 6.699 2.524 12.635 4.702 18.347 8.799 4.422 3.17 9.142 8.054 1.007 8.847-3.6 0.351-8.26-3.965-11.368-5.228-4.142-1.685-8.197-2.504-12.505-3.934-8.658-2.872-16.623-6.2-24.633-10.629-3.509-1.941-7.199-4.532-10.965-5.937-5.416-2.019-2.966-3.087-8.144-0.209-8.425 4.682-14.276 20.971-15.036 29.914-0.7 8.233 2.989 15.533 5.46 23.278 4.818-5.125 5.849-12.148 13.478-13.898 2.194-0.503 10.904-0.883 10.909 3.093 4e-3 2.8-12.721 12.786-14.808 15.86-3.358 4.946-5.269 10.181-7.849 15.543-7.163 14.883-12.646 33.63-15.008 50.262-4.069 28.651 0.17 54.276 11.039 80.686 4.352 10.574 9.033 21.552 12.239 32.467 1.559 5.307 2.466 13.139-5.408 9.538-3.98-1.82-7.361-11.767-8.245-15.502-8.732 8.046-13.239 16.973-10.777 29.611 3.467 17.798 25.895 29.172 42.195 30.656 17.077 1.554 39.258-0.645 53.524-11.17 7.348-5.421 13.57-13.937 16.534-22.559 3.045-8.859-0.989-18.883 9.273-21.361 10.634-2.569 24.297 1.988 32.812-6.998 9.441-9.964 7.98-31.166 3.781-42.924-1.485-4.158-10.135-12.868-9.126-17.253 1.876-8.151 8.284-1.048 11.306 1.832 9.697 9.237 17.05 16.961 29.318 23.007 27.131 13.371 57.231 11.708 85.906 3.324 13.131-3.839 26.65-9.41 35.022-20.706 12.626-17.034 23.046-41.829 26.809-62.647 1.352-7.479 1.094-14.594-0.059-22.092-0.438-2.847-5.139-12.242-4.901-13.549 0.965-5.302 12.091-6.608 16.136-7.972 10.655-3.592 20.91-8.501 28.083-17.484 3.999-5.009 6.758-10.865 8.522-17.005 2.903-10.103-6.279-14.465-8.546-24.469-1.552-6.849-2.58-21.183 7.441-15.071 8.084 4.93 7.099 16.343 17.241 19.986 8.363 3.004 19.646-8.274 24.369-5.623 3.217 1.805 3.649 9.846 2.705 12.631-2.562 7.556-11.174 8.089-17.982 8.518-5.501 0.346-12.4-0.886-15.116 2.64-2.182 2.833-2.347 11.284-4.112 15.157-7.789 17.097-27.858 31.447-46.585 32.106 10.651 26.025-2.28 52.377-13.125 75.948-8.327 18.099-18.311 36.066-37.177 44.331-18.885 8.273-41.251 9.877-61.72 10.39-25.525 0.64-40.983-4.692-62.28-19.238 0.594 15.539 1.848 29.376-6.787 43.353-9.64 15.604-20.855 15.194-37.346 11.712-1.443 24.795-23.812 47.715-48.178 51.338-27.488 4.087-46.639 0.704-71.874-8.203 1.32 13.671 4.68 15.832 14.426 24.674 9.047 8.207 19.504 11.945 29.458 18.431 8.346 5.438 9.021 12.629-2.489 8.909-13.086-4.231-22.548-12.131-34.078-19.69-0.886 16.29-7.868 31.664-5.793 48.115 2.494 19.773 14.834 28.78 29.899 39.836-0.271-5.85-0.144-12.978 4.674-17.177 3.32 3.952 4.053 9.185 6.67 13.516 4.15 6.87 10.502 10.536 17.956 13.173 21.294 7.535 42.046 2.292 62.39-5.283 25.067-9.334 37.022-32.812 59.644-45.902-8.076-4.682-15.001-7.894-22.529-13.928-8.295-6.649-19.339-10.712-26.681-18.15-7.754 11.713-24.892 22.732-39.183 23.153-13.478 0.397-8.589-5.985 0.144-10.023 10.34-4.78 20.957-8.744 28.76-17.496 4.293-4.815 7.315-10.529 9.043-16.731 2.305-8.275 1.395-24.332 9.065-29.569 6.984 8.829 2.775 19.793 0.086 29.095-1.715 5.935-1.892 7.284 1.139 11.854 0.754 1.137 7.942 8.276 9.305 8.461 3.4 0.459 16.933-9.349 20.149-12.261 3.288-2.976 6.625-7.527 8.063-11.788 5.447-16.137-1.127-27.953-9.149-41.258-2.524-4.185-8.249-13.689 1.333-13.609 4.969 0.041 11.792 8.778 15.639 11.365 5.557 3.736 11.392 5.713 17.932 7.117 3.494 0.75 7.257 1.579 10.849 1.605 2.324 0.017 12.025-3.136 13.621-1.874 3.318 2.622-4.752 10.789-7.651 12.159-3.917 1.85-10.21 1.323-14.446 1.019-2.212 0.158-4.417 0.045-6.612-0.34-3.99-2.795-5.933-1.604-5.829 3.572-6.103 9.883-4.233 22.764-10.838 32.874-6.074 9.299-13.338 16.722-24.951 18.588 29.281 27.19 78.803 32.735 114.72 17.965 14.365-5.907 22.555-14.152 30.048-27.665 8.175-14.746 9.149-29.061 13.863-44.924-14.415 0.083-24.758-0.486-38.76-3.992 1.233 17.522-4.323 31.502-21.762 38.32-5.983 2.339-47.329 7.611-42.639-5.768 1.818-5.186 17.157-3.436 20.789-3.475 9.629-0.104 17.958-1.172 25.463-7.946 6.278-5.667 12.784-16.863 7.283-24.127-4.647-6.136-15.325-12.023-21.268-17.416-3.563-3.232-11.879-9.956-13.116-15.126-3.708-15.499 13.301 1.479 16.368 4.592 10.59 10.749 24.781 20.931 39.853 23.739 32.749 6.1 66.06-1.617 85.63-30.052 20.075-29.169 30.862-57.79 16.553-91.82-5.37 3.457-50.14 14.841-49.885 0.62 8.92-3.219 18.928-0.304 28.082-3.204 10.84-3.434 19.173-12.91 21.947-23.878 2.543-10.054-1.276-16.496-2.113-26.124-0.817-9.392 1.042-9.04 9.45-12.354 28.108-11.077 45.266-46.169 38.744-75.033-1.544-6.833-3.791-14.827-6.804-21.065-1.816-3.76-4.427-7.217-6.738-10.667-3.978-5.939-3.316-7.186-8.914-6.957-8.211 0.336-16.5 6.564-24.708 7.524-8.156 0.954-12.176-1.581-18.498 3.881-24.925 21.537-32.755 56.824-70.406 61.428-5.823 0.712-29.613 1.207-13.823-7.327 13.464-7.277 28.798-5.375 41.61-15.834 7.598-6.202 12.319-14.614 17.696-22.652 2.921-4.366 6.699-8.898 8.71-13.793 1.604-3.905 0.523-10.707 3.376-13.593 5.348-5.409 18.718 0.576 25.141 0.049 9.494-0.779 20.499-6.725 28.856-11.345 10.475-5.789 22.675-16.279 24.611-28.61 2.445-15.57-9.341-42.82-21.807-52.201-6.89-5.184-6.596-1.708-11.399 4.395-2.638 3.352-5.36 7.006-8.704 9.695-1.754 1.411-8.237 3.275-9.061 4.381-1.942 2.609-2.712 15.3-4.399 19.454-2.035 5.01-4.426 7.92-7.324 12.165-4.213 6.17-8.702 14.214-14.917 18.651-4.951 3.536-17.122 6.246-14.895-2.303 1.651-6.338 14.368-12.006 18.71-17.315 12.241-14.964 15.335-35.556 9.781-53.605-3.306-10.744-8.113-21.947-15.506-30.543-3.053-3.55-22.329-18.055-4.338-15.254 8.089 1.26 16.62 15.171 20.216 21.455 6.031 10.54 9.211 22.199 12.206 33.885 15.229-7.785 21.234-28.278 20.11-44.303-0.722-10.306-4.483-22.436-11.206-30.293-1.484-1.734-9.328-10.048-12.196-9.678-3 0.387-6.328 7.232-8.761 9.344-2.499 2.17-8.007 6.704-11.344 5.087-6.431-3.116 1.395-7.72 3.361-9.718 7.808-7.936 11.399-17.727 15.163-28.055 6.713-18.421 8.261-39.119 5.519-58.455-2.97-20.95-12.951-38.188-28.744-51.668-7.796-6.653-16.988-20.205-26.833-17.01-5.709 1.854-20.208 12.896-20.259 1.857-6e-3 -1.221 3.712-9.98 4.613-12.017 2.25-5.087 2.363-2.424 6.735-5.578 6.062-4.374 4.224-6.924 3.821-15.605-0.312-6.725 0.278-13.537-0.365-20.242-2.034-21.212-11.033-35.545-32.018-39.818-2.69-0.548-14.426-3.571-16.169-1.371-0.769 0.97 4.182 12.258 4.801 15.141 1.001 4.663 1.241 8.816 1.244 13.744 2e-3 3.976 2.292 15.471-2.402 17.142-5.568 1.981-5.387-4.372-5.705-7.746-1.073-11.391-1.729-20.032-6.178-31.148-14.2 8.961-15.108-1.497-18.177-12.296-1.931-6.795-1.712-6.841-8.544-10.328-3.076-1.57-6.793-3.791-9.955-4.969-2.737-1.02-15.967-1.784-16.214-6.471-0.727-13.762 49.076 12.986 52.999 15.963 5.457-15.709 10.586-29.622 3.262-45.452-6.764-14.618-20.366-33.314-35.408-40.022-12.73-5.675-27.545-5.268-40.517-1.158-5.712 1.81-11.955 4.319-17.266 7-4.79 2.419-7.672 5.904-12.789 7.434 0.554 2.11 3.211 8.107 4.403 9.861 2.684 3.95 0.023 2.446 5.451 4.367 4.985 1.764 13.634-1.406 18.073 1.271 8.473 5.109-7.267 7.656-12.746 7.488-7.119-0.218-8.976-3.349-10.832 4.148-0.844 3.406-0.629 7.487-1.158 11.032-0.879 5.905 2.03 27.951-1.613 31.471-5.084 4.913-9.751-2.565-10.379-6.876-0.939-6.455 1.575-16.719 2.374-23.282 1.533-12.575 3.893-23.7-2.457-35.687-10.745-20.284-33.297-28.981-54.453-33.217 4.214 6.932 7.072 13.869 9.254 21.767 0.976 3.531 0.551 10.628 2.721 13.677 1.522 2.137 6.191 2.85 8.185 5.235 7.017 8.396 4.958 27.261-2.705 34.134-8.987 8.062-22.257 5.725-33.105 3.895-2.399-0.404-12.376-0.73-12.671-3.554-0.8-7.661 14.958-2.216 16.824-2.101 9.969 0.617 25.494-8.302 20.561-20.886-1.005-2.565-3.32-1.942-4.27-3.704-2.533-4.691-2.645-7.623-3.224-13.372-2.497-24.895-20.288-56.411-50.871-47.423-2.758 0.963 1.406-0.413 0 0z"/>
  <path d="m1124.1 297.28c12.161-4.519 30.164 16.76 32.949 26.664 2.58 9.176 2.671 22.971 0.929 32.284 7.944-0.672 15.672-1.195 23.306-3.423 6.953-2.03 11.244-5.106 8.822 4.234-2.17 8.364-9.579 10.042-17.269 10.905-5.091 0.571-11.781-1.855-16.425-0.726-4.901 1.192-6.167 5.128-10.906 8.75-10.498 8.025-21.808 7.711-34.179 8.586 1.471 4.197 10.451 34.154-2.068 22.776-4.895-4.448-5.608-14.175-8.55-19.977-1.57-3.096-17.118-18.687-11.424-22.976 3.836-2.889 15.511 12.174 19.599 12.435 7.318 0.467 24.183-8.199 29.848-12.677 11.023-8.715 10.169-23.166 6.769-35.558-4.133-15.066-14.828-18.783-21.401-31.297 1.814-0.674 1.434 2.73 0 0z"/>
  <path d="m1022.7 365.7c-0.662-10.417 14.46 5.59 15.587 7.241 3.906 5.722 12.603 18.623 1.39 19.79 19.166 0 37.327 5.991 50.477 20.39 17.128 18.755 23.323 46.101 42.475 63.17 15.721 14.011 28.78 18.036 48.705 11.495 12.936-4.246 16.896-12.056 26.83-19.273 24.129 30.801-44.02 33.084-58.948 33.706 10.67 14.27-2.535 38.464-13.128 48.939 14.319 10.431 17.241 30.218 8.137 45.39-11.453 19.085-36.86 24.584-57.398 21.152-0.227 9.792 0.521 18.128-2.122 27.369 28.554 5.042 51.69 31.138 52.404 60.089 7.48-1.711 14.248-4.485 22.061-4.413 16.55 0.154 33.529 7.801 48.392 14.129 3.58-15.438 14.097-26.937 29.134-31.502 6.929-2.103 26.177-6.89 31.522 0.612-9.593 4.626-20.402 2.911-30.048 7.586-8.167 3.957-12.987 10.516-16.75 18.556-2.035 4.349-3.57 13.313-7.712 16.276-6.294 4.502-12.293-4.164-17.861-7.444-8.84-5.206-20.964-9.45-31.28-10.146-5.547-0.374-24.379 0.921-27.67 4.685-2.398 2.742-0.736 13.744-1.419 17.927-0.654 4.009-1.804 7.489-2.772 11.357-0.861 3.443-0.904 7.659-2.935 10.691-2.059 3.073-11.637 8.729-14.857 3.482-1.725-2.811 7.634-15.657 8.612-18.452 3.665-10.476 6.081-25.56 4.282-36.568-2.858-17.488-15.688-36.841-31.777-44.661-17.607-8.558-29.476-4.917-40.124 10.728-2.658 3.906-6.377 11.481-11.722 11.718-6.068 0.269-14.465-9.295-20.618-11.17-14.434-4.399-22.024 2.547-29.819 12.567-6.436 8.273-19.625 16.677-14.361-1.384 8.605-29.522 43.423-20.842 63.731-13.626 6.497-16.494 17.155-22.81 34.108-22.345-0.656-8.688 1.668-16.831-0.674-25.364-2.479-9.034-7.279-14.089-13.927-20.15-3.03-2.762-10.29-7.808-5.638-11.41 2.385-1.848 5.475 0.095 7.759 0.835 6.008 1.947 11.002 6.894 14.549 11.896 2.492 3.515 3.897 8.11 7.648 9.689 2.89 1.216 8.797 0.196 11.862-0.078 7.889-0.706 16.404-3.122 23.374-7.06 5.789-3.271 9.446-7.437 12.134-13.494 5.48-12.347 0.074-18.084-5.568-28.06-4.942-8.739-0.273-12.085 4.616-19.507 4.687-7.115 8.192-15.518 7.795-24.118-0.491-10.64-1.906-20.12-9.574-28.44-9.144-9.922-17.855-17.324-24.072-29.793-8.299-16.644-16.747-35.376-31.838-47.172-13.473-10.533-35.35-12.69-52.01-11.823-3.544 0.184-21.166 3.417-15.027-4.788 4.047-5.409 19.711-2.618 24.805-2.403-2.008-3.995-2.043-8.816-3.714-12.974-1.947-4.858-5.839-8.606-7.026-13.847-0.171-2.708 1.331 5.878 0 0z"/>
  <path d="m1212 366.34c8.399 12.717 10.072 36.764 8.909 51.376-0.29 3.648-2.213 7.788-2.236 11.264-0.031 4.631 1.935 8.034 5.015 12.349 5.894 8.257 13.605 15.185 19.994 23.067 12.089-19.977 18.49-33.928 12.455-58.058-1.577-6.303-3.57-11.349-7.939-16.128-3.47-3.795-9.661-6.563-9.426-12.343 10.01 0.048 21.217 10.692 26.316 19.082 4.968 8.173 2.997 20.985 3.662 30.031 9.426-0.27 16.91 0.176 25.992 2.569 5.47 1.441 23.427 4.153 22.213 12.136-1.788 11.746-12.635 2.301-16.517-0.122-8.58-5.354-15.254-5.344-24.931-4.55-9.247 0.759-5.826 0.514-8.013 8.481-1.087 3.959-3.855 7.469-5.808 11.014-1.949 3.539-3.698 7.112-6.287 10.245-4.604 5.572-5.209 3.096-3.399 8.844 2.175 6.906 10.986 12.942 14.595 19.4 4.981 8.914 9.015 19.642 11.522 29.564 14.177-17.426 30.512-26.126 53.362-19.19-0.442 7.647-15.311 5.977-19.786 7.018-4.104 0.955-9.045 2.678-12.568 5.158-2.283 1.607-4.193 4.003-6.223 5.915-2.733 2.572-11.134 7.792-12.164 11.05-0.938 2.965 1.219 8.28 1.548 11.218 2.271 20.257-0.289 51.981-14.734 68.176 10.076 1.293 21.989 8.61 28.595 16.182 2.777 3.183 12.027 20.89 5.765 23.392-7.06 2.82-17.182-20.628-22.452-24.382-2.817-2.007-14.21-9.104-17.511-8.114-3.627 1.087-8.338 9.938-11.049 12.85-8.08 8.682-17.867 16.407-28.694 21.377-3.641 1.67-16.886 7.825-20.857 3.792-4.807-4.882 7.621-9.366 10.746-10.685 35.598-15.031 62.612-50.694 62.118-90.36-0.463-37.168-21.746-80.427-52.31-102.67-6.692-4.87-19.801-6.885-19.795-15.523 6e-3 -8.991 8.985-18.397 9.896-27.812 0.688-7.119-0.678-15.163-2.678-21.942-1.83-6.203-7.168-20.556 2.674-23.674 3.872 5.862-2.542 0.806 0 0z"/>
  <path d="m1027.2 445.58c9.456-0.992 19.38 10.272 26.351 14.901 5.022 3.335 10.789 6.98 16.802 8.08 6.627 1.211 11.508-1.442 17.968-1.84 3.758 11.326-3.969 15.94-12.807 16.718-8.181 0.721-12.247-2.285-17.535 4.951-3.542 4.848-5.537 10.767-7.021 16.508-3.261 12.618-2.738 21.985 0.99 34.302 0.794 2.621 1.365 5.336 2.138 7.937 1.739 5.854-0.55 4.377 4.239 7.263 5.236 3.155 10.652-0.448 13.983 6.856-1.251 3.386-35.037-2.559-40.859-1.243-6.818 1.54-13.191 5.671-18.803 9.674-3.677 2.622-11.151 11.892-15.919 11.287-13.406-1.701 12.116-20.95 16.472-23.238 11.064-5.813 21.27-4.963 33.15-5.409-10.165-17.011-11.73-38.659-3.126-57.595 1.53-3.366 10.077-12.643 9.756-16.087-0.214-2.298-6.714-8.054-8.244-9.796-3.211-3.656-6.227-8.507-9.992-11.343-2.427-1.83-20.94-10.256-7.543-11.926 2.242-0.235-4.157 0.518 0 0z"/>
  <path d="m1077.9 764.81c-2.539-9.619 11.647-0.674 13.457 2.492 2.496 4.364 3.025 8.187 3.343 13.186 0.79 12.385 0.225 22.017-8.054 31.282 12.563 3.041 29.048-1.606 40.923-5.506 7.436-2.442 13.109-5.569 18.761-11.059 4.144-4.025 7.868-10.584 14.164-11.371 4.393 14.161-7.174 19.529-16.688 25.94-15.795 10.643-31.817 11.073-50.59 11.883-7.029 0.303-14.693 1.065-21.488-1.187-1.239-0.411-2.182-1.411-3.366-1.882-2.722-1.085-5.222-2.774-8.192-3.245-6.136-0.975-8.816 1.156-14.648 3.825-7.583 3.47-24.472 11.555-33.235 9.14-16.987-4.681 15.193-10.741 17.848-11.679 6.365-2.25 7.287-5.942 12.176-9.629 6.859-5.172 14.639-3.767 22.589-2.805 5.993 0.725 7.927 2.263 12.436-2.585 2.925-3.146 4.431-8.599 5.192-12.694 1.735-9.321-2.889-15.255-4.628-24.106-0.567-2.15 0.58 2.948 0 0z"/>
  <path d="m1214.3 779.89c0.893-1.419 1.785-2.837 2.678-4.256 11.775 9.164 12.165 26.709 15.489 39.979 3.213 12.823 6.379 28.543-2.243 39.488-8.585 10.898-21.895 14.449-35.287 14.862-6.993 0.215-13.485-0.056-19.962-3.042-1.31-0.603-3.438-2.038-4.787-2.344-1.621-3.099-3.252-3.553-4.891-1.361-1.631 1.297-3.239 2.622-4.823 3.976-30.358 19.154-71.753 21.077-105.13 11.907 1.502 12.708 3.834 27.7-7.153 37.273-4.46 3.886-20.137 7.994-25.608 4.371-7.321-4.847 3.276-9.265 7.957-12.183 6.876-4.286 14.241-6.607 16.176-15.186 0.989-4.387 0.357-17.411-1.676-20.064-0.896-1.17-46.479-23.928-29.802-30.383 4.797-1.857 12.139 8.185 15.385 10.971 6.182 5.307 12.575 9.275 20.123 12.399 18.847 7.799 35.632 10.371 55.727 7.601 16.217-2.236 32.401-6.884 45.412-17.177 2.941-2.326 6.009-6.852 9.334-8.477 5.147-2.515 3.922-0.701 8.882 2.232 17.362 10.267 48.408 10.331 54.874-13.006 5.255-18.962-10.54-38.774-10.671-57.58 0.55-1.606 0.034 4.938 0 0z"/>
  <path d="m739.24 1203c129.61-0.028 259.21-0.028 388.82 0 0.029 22.546 0.029 45.097 6e-3 67.642-129.61 0.028-259.22 0.028-388.83 0-0.029-22.545-0.029-45.097 0-67.642z"/>
  <path d="m754.15 1293.1c116.03-0.028 232.07-0.028 348.11 0 0.023 22.546 0.023 45.097-6e-3 67.642-116.03 0.029-232.07 0.029-348.1 0-0.029-22.545-0.029-45.097 0-67.642z"/>
  <path d="m775.94 1386c100.93-0.028 201.86-0.028 302.79-6e-3 0.028 22.551 0.023 45.102 6e-3 67.648-100.94 0.029-201.87 0.029-302.8 0-0.029-22.545-0.029-45.096 0-67.642z"/>
 </g>
</svg>
