<?xml version="1.0" standalone="no"?>
<!DOCTYPE svg PUBLIC "-//W3C//DTD SVG 20010904//EN"
 "http://www.w3.org/TR/2001/REC-SVG-20010904/DTD/svg10.dtd">
<svg version="1.0" xmlns="http://www.w3.org/2000/svg"
 width="512.000000pt" height="512.000000pt" viewBox="0 0 512.000000 512.000000"
 preserveAspectRatio="xMidYMid meet">

<g transform="translate(0.000000,512.000000) scale(0.100000,-0.100000)"
fill="#000000" stroke="none">
<path d="M2472 5030 c-78 -49 -290 -180 -470 -291 -180 -111 -599 -371 -932
-577 -333 -206 -638 -395 -678 -420 l-73 -45 63 -48 c35 -26 227 -173 428
-327 l365 -279 12 26 c6 14 26 60 45 101 154 352 432 627 793 782 197 84 366
118 595 118 329 0 609 -91 873 -283 l69 -50 369 369 c203 203 368 372 367 375
-6 14 -168 139 -268 206 -361 242 -774 385 -1213 422 -204 17 -184 22 -345
-79z"/>
<path d="M4883 3031 c-15 -11 -32 -56 -35 -91 -1 -19 -6 -41 -11 -47 -5 -7 -7
-13 -4 -13 3 0 0 -21 -8 -47 -7 -27 -16 -66 -19 -88 -11 -73 -40 -185 -48
-185 -4 0 -8 -15 -8 -34 0 -19 -4 -38 -10 -41 -5 -3 -10 -23 -10 -43 0 -31 -7
-66 -43 -207 -1 -5 -6 -16 -10 -22 -5 -7 -6 -13 -3 -13 3 0 -1 -21 -9 -47 -8
-27 -17 -68 -20 -93 -7 -48 -22 -115 -32 -140 -4 -8 -7 -18 -8 -22 -2 -5 -3
-9 -5 -10 -2 -3 -4 -13 -14 -63 -19 -101 -45 -216 -50 -224 -4 -5 -9 -29 -12
-53 -4 -24 -12 -61 -20 -83 -8 -22 -17 -73 -20 -112 -4 -40 -11 -73 -15 -73
-4 0 -11 -16 -15 -35 -3 -19 -10 -35 -15 -35 -5 0 -9 -17 -9 -38 0 -21 -4 -42
-9 -48 -5 -5 -12 -34 -15 -66 -4 -31 -16 -87 -27 -125 -11 -37 -22 -83 -25
-100 -5 -30 -3 -33 19 -33 24 0 33 6 64 44 7 8 17 16 23 18 5 1 14 23 19 48 6
31 9 36 10 18 1 -15 6 -30 13 -34 6 -4 8 -3 5 3 -4 6 0 19 7 29 10 13 11 23 4
31 -7 9 -4 11 11 8 18 -3 21 1 22 33 l2 37 7 -40 6 -40 8 30 c13 53 15 55 35
55 17 0 36 25 33 43 -1 4 3 7 9 7 8 0 8 4 0 14 -12 15 1 32 17 22 4 -2 18 12
31 31 12 19 17 32 9 28 -7 -3 -5 0 6 9 11 9 16 22 12 31 -3 9 0 18 8 21 8 3
12 14 8 26 -4 15 -2 19 8 13 17 -10 32 16 18 32 -8 11 -7 12 7 7 13 -5 16 -4
11 4 -4 7 -3 12 2 12 13 0 25 39 23 73 -1 15 3 27 8 27 6 0 11 -6 12 -12 0 -7
8 7 18 32 11 25 15 47 10 48 -5 2 -9 8 -9 14 0 6 6 8 14 5 11 -4 14 2 14 25
-1 16 4 33 11 37 6 4 13 16 15 27 2 10 11 32 19 48 9 16 14 42 12 58 -2 19 1
31 11 35 10 4 14 25 14 83 0 66 3 78 18 82 13 4 22 28 37 99 17 82 20 142 22
474 3 328 1 380 -12 388 -10 5 -16 26 -17 60 l-1 52 -7 -55 c-7 -52 -8 -52 -6
21 l1 76 -52 0 c-28 0 -55 -3 -60 -6z m132 -151 c3 -6 -4 -10 -17 -10 -18 0
-20 2 -8 10 19 12 18 12 25 0z m-45 -140 c0 -5 -2 -10 -4 -10 -3 0 -8 5 -11
10 -3 6 -1 10 4 10 6 0 11 -4 11 -10z m-170 -825 c16 -19 5 -47 -16 -43 -9 2
-24 14 -33 28 -9 13 -11 21 -4 17 6 -4 14 -3 18 3 9 14 20 12 35 -5z m-35 -55
c3 -5 1 -10 -4 -10 -6 0 -11 5 -11 10 0 6 2 10 4 10 3 0 8 -4 11 -10z m-315
-985 c0 -7 -38 -45 -45 -45 -3 0 -5 11 -5 25 0 20 5 25 25 25 14 0 25 -2 25
-5z"/>
<path d="M4786 1907 c3 -10 9 -15 12 -12 3 3 0 11 -7 18 -10 9 -11 8 -5 -6z"/>
<path d="M4760 1901 c0 -6 4 -13 10 -16 6 -3 7 1 4 9 -7 18 -14 21 -14 7z"/>
<path d="M2650 2350 c0 -167 4 -260 10 -260 6 0 10 93 10 260 0 167 -4 260
-10 260 -6 0 -10 -93 -10 -260z"/>
<path d="M2680 2353 c0 -169 4 -263 10 -263 13 0 13 489 0 510 -6 10 -10 -74
-10 -247z"/>
<path d="M2710 2340 l0 -250 568 -2 c312 -2 568 -2 570 -1 2 0 -20 13 -48 27
-29 14 -57 23 -62 19 -7 -3 -8 -1 -4 5 5 8 0 12 -13 12 -11 0 -23 5 -26 10 -3
6 -15 10 -26 10 -10 0 -19 5 -19 10 0 6 -10 10 -22 10 -13 0 -34 9 -48 20 -14
11 -32 20 -40 20 -8 0 -26 9 -40 20 -14 11 -31 20 -38 20 -7 0 -20 4 -30 9
-24 13 -113 52 -137 61 -11 4 -40 17 -65 29 -25 12 -57 22 -72 23 -15 1 -25 4
-23 6 3 4 -115 64 -160 81 -11 5 -40 18 -63 30 -24 11 -52 21 -63 21 -10 0
-19 3 -19 8 0 8 -49 32 -67 32 -7 0 -13 5 -13 10 0 6 -9 10 -20 10 -19 0 -20
-7 -20 -250z"/>
</g>
</svg>
